<?xml version="1.0" encoding="iso-8859-1"?>
<!-- Generator: Adobe Illustrator 19.0.0, SVG Export Plug-In . SVG Version: 6.00 Build 0)  -->
<svg version="1.1" id="Capa_1" xmlns="http://www.w3.org/2000/svg" xmlns:xlink="http://www.w3.org/1999/xlink" x="0px" y="0px"
	 viewBox="0 0 512 512" style="enable-background:new 0 0 512 512;" xml:space="preserve">
<g>
	<polygon style="fill:#BDC3C7;" points="207.978,220.69 240.022,194.33 176.552,123.586 150.069,150.069 190.146,194.33 
		158.897,219.692 159.779,220.69 	"/>
	<g>
		<circle style="fill:#46B29D;" cx="158.897" cy="132.414" r="26.483"/>
		<path style="fill:#46B29D;" d="M512,8.828v158.879c0,4.875-3.952,8.828-8.828,8.828H476.69l-37.076,58.262
			c-2.28,3.04-6.249,4.28-9.854,3.078s-6.036-4.575-6.036-8.375v-52.966H317.793c-4.875,0-8.828-3.952-8.828-8.828V8.828
			c0-4.875,3.952-8.828,8.828-8.828h185.379C508.048,0,512,3.952,512,8.828z"/>
	</g>
	<path style="fill:#65DDB9;" d="M476.067,32.227c-0.117-0.288-0.251-0.569-0.399-0.842c-0.881-1.805-2.36-3.249-4.186-4.086
		c-0.079-0.035-0.138-0.097-0.218-0.131l-0.023-0.013c-0.979-0.389-2.021-0.596-3.075-0.611c-0.107-0.003-0.197-0.061-0.304-0.061
		h-26.483c-4.875,0-8.828,3.952-8.828,8.828s3.952,8.828,8.828,8.828h5.172l-23.655,23.655l-29.185-21.888
		c-3.51-2.649-8.437-2.299-11.539,0.819l-35.31,35.31c-2.263,2.223-3.16,5.49-2.348,8.556c0.812,3.067,3.207,5.462,6.274,6.274
		c3.067,0.812,6.333-0.085,8.556-2.348l29.897-29.897l29.186,21.888c3.512,2.645,8.436,2.295,11.539-0.819l29.069-29.069v5.172
		c0,4.875,3.952,8.828,8.828,8.828s8.828-3.952,8.828-8.828V35.31C476.671,34.253,476.46,33.209,476.067,32.227z"/>
	<path style="fill:#D75E72;" d="M353.103,150.069c-2.341,0.001-4.587-0.929-6.243-2.585c-1.656-1.656-2.585-3.901-2.585-6.243
		v-17.655c0-4.875,3.952-8.828,8.828-8.828s8.828,3.952,8.828,8.828v17.655c0.001,2.341-0.929,4.587-2.585,6.243
		C357.691,149.14,355.445,150.07,353.103,150.069z"/>
	<path style="fill:#41767F;" d="M388.414,150.069c-2.341,0.001-4.587-0.929-6.243-2.585c-1.656-1.656-2.585-3.901-2.585-6.243
		V97.103c0-4.875,3.952-8.828,8.828-8.828s8.828,3.952,8.828,8.828v44.138c0.001,2.341-0.929,4.587-2.585,6.243
		C393.001,149.14,390.755,150.07,388.414,150.069z"/>
	<path style="fill:#E64C3C;" d="M423.724,150.069c-2.341,0.001-4.587-0.929-6.243-2.585c-1.656-1.656-2.585-3.901-2.585-6.243
		v-26.483c0-4.875,3.952-8.828,8.828-8.828c4.875,0,8.828,3.952,8.828,8.828v26.483c0.001,2.341-0.929,4.587-2.585,6.243
		C428.311,149.14,426.066,150.07,423.724,150.069z"/>
	<path style="fill:#F0C419;" d="M459.034,150.069c-2.341,0.001-4.587-0.929-6.243-2.585c-1.656-1.656-2.585-3.901-2.585-6.243
		V97.103c0-4.875,3.952-8.828,8.828-8.828s8.828,3.952,8.828,8.828v44.138c0.001,2.341-0.929,4.587-2.585,6.243
		C463.622,149.14,461.376,150.07,459.034,150.069z"/>
	<path style="fill:#41767F;" d="M344.276,353.103c24.377,0,44.138-19.761,44.138-44.138s-19.761-44.138-44.138-44.138H44.138
		C19.761,264.828,0,284.589,0,308.966s19.761,44.138,44.138,44.138H344.276z"/>
	<path style="fill:#D1D4D1;" d="M344.276,379.586V238.345c0-14.626-11.857-26.483-26.483-26.483H70.621
		c-14.626,0-26.483,11.857-26.483,26.483v141.241c0,14.626,11.857,26.483,26.483,26.483h88.276c-9.751,0-17.655,7.904-17.655,17.655
		c0,9.751,7.904,17.655,17.655,17.655c-9.751,0-17.655,7.905-17.655,17.655s7.904,17.655,17.655,17.655H70.621
		c-7.027-0.009-13.768,2.778-18.736,7.746c-4.969,4.969-7.756,11.71-7.746,18.737l0,8.828h300.138v-8.828
		c0.009-7.027-2.778-13.768-7.746-18.737c-4.969-4.969-11.71-7.756-18.737-7.746h-88.276c9.751,0,17.655-7.905,17.655-17.655
		s-7.904-17.655-17.655-17.655c9.751,0,17.655-7.904,17.655-17.655c0-9.751-7.904-17.655-17.655-17.655h88.276
		C332.419,406.069,344.276,394.212,344.276,379.586z"/>
	<path style="fill:#BDC3C7;" d="M229.517,406.069c9.751,0,17.655,7.904,17.655,17.655c0,9.751-7.904,17.655-17.655,17.655
		c9.751,0,17.655,7.905,17.655,17.655s-7.904,17.655-17.655,17.655h-70.621c-9.751,0-17.655-7.905-17.655-17.655
		s7.904-17.655,17.655-17.655c-9.751,0-17.655-7.904-17.655-17.655c0-9.751,7.904-17.655,17.655-17.655H229.517z"/>
	<path style="fill:#D1D4D1;" d="M344.276,512v-8.828c0.009-7.026-2.778-13.768-7.746-18.736c-4.969-4.969-11.71-7.756-18.737-7.746
		H70.621c-7.027-0.009-13.768,2.778-18.736,7.746c-4.969,4.969-7.756,11.71-7.746,18.736l0,8.828"/>
	<rect x="97.103" y="370.759" style="fill:#67B9CC;" width="194.207" height="35.31"/>
	<path style="fill:#41767F;" d="M291.31,353.103v17.655H97.103v-17.655c0.028-9.739,7.916-17.627,17.655-17.655h158.897
		C283.394,335.477,291.282,343.365,291.31,353.103z"/>
	<g>
		<path style="fill:#46B29D;" d="M114.759,247.172h17.655c9.751,0,17.655,7.904,17.655,17.655v17.655
			c0,9.751-7.904,17.655-17.655,17.655h-17.655c-9.751,0-17.655-7.905-17.655-17.655v-17.655
			C97.103,255.077,105.008,247.172,114.759,247.172z"/>
		<path style="fill:#46B29D;" d="M256,247.172h17.655c9.751,0,17.655,7.904,17.655,17.655v17.655
			c0,9.751-7.904,17.655-17.655,17.655H256c-9.751,0-17.655-7.905-17.655-17.655v-17.655
			C238.345,255.077,246.249,247.172,256,247.172z"/>
	</g>
</g>
<g>
</g>
<g>
</g>
<g>
</g>
<g>
</g>
<g>
</g>
<g>
</g>
<g>
</g>
<g>
</g>
<g>
</g>
<g>
</g>
<g>
</g>
<g>
</g>
<g>
</g>
<g>
</g>
<g>
</g>
</svg>
