<?xml version="1.0" encoding="iso-8859-1"?>
<!-- Generator: Adobe Illustrator 19.0.0, SVG Export Plug-In . SVG Version: 6.00 Build 0)  -->
<svg version="1.1" id="Capa_1" xmlns="http://www.w3.org/2000/svg" xmlns:xlink="http://www.w3.org/1999/xlink" x="0px" y="0px"
	 viewBox="0 0 512 512" style="enable-background:new 0 0 512 512;" xml:space="preserve">
<circle style="fill:#BEE8FF;" cx="255.994" cy="255.994" r="240.135"/>
<path style="fill:#18A7FC;" d="M437.019,74.981C388.668,26.629,324.38,0,255.999,0S123.332,26.629,74.981,74.981
	S0,187.619,0,255.999s26.629,132.667,74.981,181.02C123.332,485.371,187.62,512,255.999,512s132.667-26.629,181.02-74.981
	S512,324.38,512,255.999S485.371,123.332,437.019,74.981z M479.715,240.141h-93.958c-7.22-59.427-54.47-106.677-113.899-113.897
	V32.286C382.915,40.083,471.918,129.085,479.715,240.141z M240.141,240.141h-81.868c6.777-41.912,39.956-75.09,81.868-81.868
	L240.141,240.141L240.141,240.141z M240.141,271.858v81.869c-41.912-6.777-75.091-39.956-81.868-81.869H240.141z M271.858,271.858
	h81.869c-6.777,41.912-39.956,75.091-81.869,81.869V271.858z M271.858,240.141v-81.868c41.913,6.777,75.091,39.956,81.869,81.868
	L271.858,240.141L271.858,240.141z M240.141,32.286v93.958c-59.427,7.22-106.677,54.47-113.897,113.897H32.286
	C40.082,129.085,129.085,40.083,240.141,32.286z M32.286,271.858h93.958c7.22,59.427,54.47,106.678,113.897,113.897v93.958
	C129.085,471.917,40.082,382.915,32.286,271.858z M271.858,479.715v-93.958c59.427-7.22,106.678-54.471,113.899-113.897h93.958
	C471.918,382.915,382.915,471.917,271.858,479.715z"/>
<path style="fill:#54CBFF;" d="M256.004,15.859v480.282c132.625-0.002,240.137-107.516,240.137-240.141
	S388.628,15.861,256.004,15.859z"/>
<path style="fill:#0074F0;" d="M256.004,0v512c68.378-0.001,132.665-26.629,181.016-74.981C485.371,388.668,512,324.38,512,255.999
	s-26.629-132.667-74.981-181.019C388.668,26.63,324.382,0.001,256.004,0z M271.858,158.273
	c41.913,6.777,75.091,39.956,81.869,81.868h-81.869V158.273z M271.858,271.858h81.869c-6.777,41.912-39.956,75.091-81.869,81.869
	V271.858z M271.858,479.715v-93.958c59.427-7.22,106.678-54.471,113.899-113.897h93.958
	C471.918,382.915,382.915,471.917,271.858,479.715z M385.757,240.141c-7.22-59.427-54.47-106.677-113.899-113.897V32.286
	c111.057,7.796,200.059,96.798,207.856,207.855L385.757,240.141L385.757,240.141z"/>
<g>
</g>
<g>
</g>
<g>
</g>
<g>
</g>
<g>
</g>
<g>
</g>
<g>
</g>
<g>
</g>
<g>
</g>
<g>
</g>
<g>
</g>
<g>
</g>
<g>
</g>
<g>
</g>
<g>
</g>
</svg>
