<?xml version="1.0" encoding="iso-8859-1"?>
<!-- Generator: Adobe Illustrator 19.0.0, SVG Export Plug-In . SVG Version: 6.00 Build 0)  -->
<svg version="1.1" id="Capa_1" xmlns="http://www.w3.org/2000/svg" xmlns:xlink="http://www.w3.org/1999/xlink" x="0px" y="0px"
	 viewBox="0 0 512 512" style="enable-background:new 0 0 512 512;" xml:space="preserve">
<rect x="130.169" y="377.492" style="fill:#E7ECED;" width="190.915" height="69.424"/>
<g>
	<rect x="26.034" y="125.831" style="fill:#28384C;" width="34.712" height="52.068"/>
	<rect x="26.034" y="221.288" style="fill:#28384C;" width="34.712" height="52.068"/>
</g>
<rect x="373.153" y="377.492" style="fill:#E7ECED;" width="69.424" height="69.424"/>
<rect x="60.746" y="99.797" style="fill:#3D6F44;" width="451.254" height="286.373"/>
<g>
	<path style="fill:#E7ECED;" d="M60.746,73.763H8.678C3.888,73.763,0,69.875,0,65.085s3.888-8.678,8.678-8.678h52.068
		c4.79,0,8.678,3.888,8.678,8.678S65.536,73.763,60.746,73.763z"/>
	<path style="fill:#E7ECED;" d="M60.746,455.593c-4.79,0-8.678-3.888-8.678-8.678V65.085c0-4.79,3.888-8.678,8.678-8.678
		s8.678,3.888,8.678,8.678v381.831C69.424,451.705,65.536,455.593,60.746,455.593z"/>
</g>
<g>
	<path style="fill:#8397AA;" d="M121.492,160.542c-4.79,0-8.678-3.888-8.678-8.678v-17.356c0-4.79,3.888-8.678,8.678-8.678
		s8.678,3.888,8.678,8.678v17.356C130.169,156.655,126.282,160.542,121.492,160.542z"/>
	<path style="fill:#8397AA;" d="M190.915,160.542c-4.79,0-8.678-3.888-8.678-8.678v-17.356c0-4.79,3.888-8.678,8.678-8.678
		s8.678,3.888,8.678,8.678v17.356C199.593,156.655,195.705,160.542,190.915,160.542z"/>
	<path style="fill:#8397AA;" d="M156.203,160.542c-4.79,0-8.678-3.888-8.678-8.678v-17.356c0-4.79,3.888-8.678,8.678-8.678
		s8.678,3.888,8.678,8.678v17.356C164.881,156.655,160.994,160.542,156.203,160.542z"/>
	<path style="fill:#8397AA;" d="M121.492,229.966c-4.79,0-8.678-3.888-8.678-8.678v-17.356c0-4.79,3.888-8.678,8.678-8.678
		s8.678,3.888,8.678,8.678v17.356C130.169,226.078,126.282,229.966,121.492,229.966z"/>
	<path style="fill:#8397AA;" d="M190.915,229.966c-4.79,0-8.678-3.888-8.678-8.678v-17.356c0-4.79,3.888-8.678,8.678-8.678
		s8.678,3.888,8.678,8.678v17.356C199.593,226.078,195.705,229.966,190.915,229.966z"/>
	<path style="fill:#8397AA;" d="M156.203,229.966c-4.79,0-8.678-3.888-8.678-8.678v-17.356c0-4.79,3.888-8.678,8.678-8.678
		s8.678,3.888,8.678,8.678v17.356C164.881,226.078,160.994,229.966,156.203,229.966z"/>
	<path style="fill:#8397AA;" d="M121.492,290.712c-4.79,0-8.678-3.888-8.678-8.678v-17.356c0-4.79,3.888-8.678,8.678-8.678
		s8.678,3.888,8.678,8.678v17.356C130.169,286.824,126.282,290.712,121.492,290.712z"/>
	<path style="fill:#8397AA;" d="M190.915,290.712c-4.79,0-8.678-3.888-8.678-8.678v-17.356c0-4.79,3.888-8.678,8.678-8.678
		s8.678,3.888,8.678,8.678v17.356C199.593,286.824,195.705,290.712,190.915,290.712z"/>
	<path style="fill:#8397AA;" d="M156.203,290.712c-4.79,0-8.678-3.888-8.678-8.678v-17.356c0-4.79,3.888-8.678,8.678-8.678
		s8.678,3.888,8.678,8.678v17.356C164.881,286.824,160.994,290.712,156.203,290.712z"/>
	<path style="fill:#8397AA;" d="M121.492,360.136c-4.79,0-8.678-3.888-8.678-8.678v-17.356c0-4.79,3.888-8.678,8.678-8.678
		s8.678,3.888,8.678,8.678v17.356C130.169,356.248,126.282,360.136,121.492,360.136z"/>
	<path style="fill:#8397AA;" d="M190.915,360.136c-4.79,0-8.678-3.888-8.678-8.678v-17.356c0-4.79,3.888-8.678,8.678-8.678
		s8.678,3.888,8.678,8.678v17.356C199.593,356.248,195.705,360.136,190.915,360.136z"/>
	<path style="fill:#8397AA;" d="M156.203,360.136c-4.79,0-8.678-3.888-8.678-8.678v-17.356c0-4.79,3.888-8.678,8.678-8.678
		s8.678,3.888,8.678,8.678v17.356C164.881,356.248,160.994,360.136,156.203,360.136z"/>
	<path style="fill:#8397AA;" d="M381.831,160.542c-4.79,0-8.678-3.888-8.678-8.678v-17.356c0-4.79,3.888-8.678,8.678-8.678
		s8.678,3.888,8.678,8.678v17.356C390.508,156.655,386.621,160.542,381.831,160.542z"/>
	<path style="fill:#8397AA;" d="M451.254,160.542c-4.79,0-8.678-3.888-8.678-8.678v-17.356c0-4.79,3.888-8.678,8.678-8.678
		s8.678,3.888,8.678,8.678v17.356C459.932,156.655,456.044,160.542,451.254,160.542z"/>
	<path style="fill:#8397AA;" d="M416.542,160.542c-4.79,0-8.678-3.888-8.678-8.678v-17.356c0-4.79,3.888-8.678,8.678-8.678
		c4.79,0,8.678,3.888,8.678,8.678v17.356C425.22,156.655,421.333,160.542,416.542,160.542z"/>
	<path style="fill:#8397AA;" d="M381.831,229.966c-4.79,0-8.678-3.888-8.678-8.678v-17.356c0-4.79,3.888-8.678,8.678-8.678
		s8.678,3.888,8.678,8.678v17.356C390.508,226.078,386.621,229.966,381.831,229.966z"/>
	<path style="fill:#8397AA;" d="M451.254,229.966c-4.79,0-8.678-3.888-8.678-8.678v-17.356c0-4.79,3.888-8.678,8.678-8.678
		s8.678,3.888,8.678,8.678v17.356C459.932,226.078,456.044,229.966,451.254,229.966z"/>
	<path style="fill:#8397AA;" d="M416.542,229.966c-4.79,0-8.678-3.888-8.678-8.678v-17.356c0-4.79,3.888-8.678,8.678-8.678
		c4.79,0,8.678,3.888,8.678,8.678v17.356C425.22,226.078,421.333,229.966,416.542,229.966z"/>
	<path style="fill:#8397AA;" d="M381.831,290.712c-4.79,0-8.678-3.888-8.678-8.678v-17.356c0-4.79,3.888-8.678,8.678-8.678
		s8.678,3.888,8.678,8.678v17.356C390.508,286.824,386.621,290.712,381.831,290.712z"/>
	<path style="fill:#8397AA;" d="M451.254,290.712c-4.79,0-8.678-3.888-8.678-8.678v-17.356c0-4.79,3.888-8.678,8.678-8.678
		s8.678,3.888,8.678,8.678v17.356C459.932,286.824,456.044,290.712,451.254,290.712z"/>
	<path style="fill:#8397AA;" d="M416.542,290.712c-4.79,0-8.678-3.888-8.678-8.678v-17.356c0-4.79,3.888-8.678,8.678-8.678
		c4.79,0,8.678,3.888,8.678,8.678v17.356C425.22,286.824,421.333,290.712,416.542,290.712z"/>
	<path style="fill:#8397AA;" d="M381.831,360.136c-4.79,0-8.678-3.888-8.678-8.678v-17.356c0-4.79,3.888-8.678,8.678-8.678
		s8.678,3.888,8.678,8.678v17.356C390.508,356.248,386.621,360.136,381.831,360.136z"/>
	<path style="fill:#8397AA;" d="M451.254,360.136c-4.79,0-8.678-3.888-8.678-8.678v-17.356c0-4.79,3.888-8.678,8.678-8.678
		s8.678,3.888,8.678,8.678v17.356C459.932,356.248,456.044,360.136,451.254,360.136z"/>
	<path style="fill:#8397AA;" d="M416.542,360.136c-4.79,0-8.678-3.888-8.678-8.678v-17.356c0-4.79,3.888-8.678,8.678-8.678
		c4.79,0,8.678,3.888,8.678,8.678v17.356C425.22,356.248,421.333,360.136,416.542,360.136z"/>
</g>
<g>
	<path style="fill:#61B872;" d="M329.763,160.542h-86.78c-4.79,0-8.678-3.888-8.678-8.678s3.888-8.678,8.678-8.678h86.78
		c4.79,0,8.678,3.888,8.678,8.678S334.553,160.542,329.763,160.542z"/>
	<path style="fill:#61B872;" d="M329.763,212.61h-86.78c-4.79,0-8.678-3.888-8.678-8.678s3.888-8.678,8.678-8.678h86.78
		c4.79,0,8.678,3.888,8.678,8.678S334.553,212.61,329.763,212.61z"/>
	<path style="fill:#61B872;" d="M329.763,290.712h-86.78c-4.79,0-8.678-3.888-8.678-8.678c0-4.79,3.888-8.678,8.678-8.678h86.78
		c4.79,0,8.678,3.888,8.678,8.678C338.441,286.824,334.553,290.712,329.763,290.712z"/>
	<path style="fill:#61B872;" d="M329.763,342.78h-86.78c-4.79,0-8.678-3.888-8.678-8.678s3.888-8.678,8.678-8.678h86.78
		c4.79,0,8.678,3.888,8.678,8.678C338.441,338.892,334.553,342.78,329.763,342.78z"/>
</g>
<g>
	<rect x="104.136" y="151.864" style="fill:#28384C;" width="104.136" height="52.068"/>
	<rect x="104.136" y="282.034" style="fill:#28384C;" width="104.136" height="52.068"/>
	<rect x="364.475" y="151.864" style="fill:#28384C;" width="104.136" height="52.068"/>
	<rect x="364.475" y="282.034" style="fill:#28384C;" width="104.136" height="52.068"/>
</g>
<g>
	<path style="fill:#AFB6BB;" d="M277.695,412.203c-4.79,0-8.678,3.888-8.678,8.678v26.034h17.356v-26.034
		C286.373,416.091,282.485,412.203,277.695,412.203z"/>
	<path style="fill:#AFB6BB;" d="M242.983,412.203c-4.79,0-8.678,3.888-8.678,8.678v26.034h17.356v-26.034
		C251.661,416.091,247.773,412.203,242.983,412.203z"/>
	<path style="fill:#AFB6BB;" d="M208.271,412.203c-4.79,0-8.678,3.888-8.678,8.678v26.034h17.356v-26.034
		C216.949,416.091,213.061,412.203,208.271,412.203z"/>
	<path style="fill:#AFB6BB;" d="M173.559,412.203c-4.79,0-8.678,3.888-8.678,8.678v26.034h17.356v-26.034
		C182.237,416.091,178.35,412.203,173.559,412.203z"/>
	<path style="fill:#AFB6BB;" d="M407.864,412.203c-4.79,0-8.678,3.888-8.678,8.678v26.034h17.356v-26.034
		C416.542,416.091,412.655,412.203,407.864,412.203z"/>
</g>
<g>
</g>
<g>
</g>
<g>
</g>
<g>
</g>
<g>
</g>
<g>
</g>
<g>
</g>
<g>
</g>
<g>
</g>
<g>
</g>
<g>
</g>
<g>
</g>
<g>
</g>
<g>
</g>
<g>
</g>
</svg>
