<?xml version="1.0" encoding="iso-8859-1"?>
<!-- Generator: Adobe Illustrator 19.0.0, SVG Export Plug-In . SVG Version: 6.00 Build 0)  -->
<svg version="1.1" id="Capa_1" xmlns="http://www.w3.org/2000/svg" xmlns:xlink="http://www.w3.org/1999/xlink" x="0px" y="0px"
	 viewBox="0 0 397.102 397.102" style="enable-background:new 0 0 397.102 397.102;" xml:space="preserve">
<g>
	<g>
		<path style="fill:#00EFD1;" d="M134.27,99.266c-19.621,0.002-35.525,15.91-35.523,35.53c0.002,19.621,15.91,35.525,35.53,35.523
			c19.621-0.002,35.525-15.91,35.523-35.53c0-0.173-0.001-0.346-0.004-0.519c0.002-19.332-15.668-35.006-35-35.008
			C134.621,99.262,134.445,99.263,134.27,99.266z M54.858,54.857c3.911-3.795,9.18-5.865,14.629-5.747l130.612-3.657
			c8.608-0.044,16.879,3.34,22.988,9.404l164.571,164.571c12.263,11.808,12.632,31.322,0.824,43.585
			c-0.269,0.28-0.544,0.554-0.824,0.824l-123.82,123.82c-11.808,12.263-31.322,12.632-43.585,0.824
			c-0.28-0.269-0.554-0.544-0.824-0.824L54.858,223.086c-6.065-6.109-9.448-14.38-9.404-22.988l3.657-130.612
			C48.993,64.037,51.063,58.769,54.858,54.857z"/>
		<path style="fill:#00ACEA;" d="M109.192,119.641c-2.756-0.039-5.385-1.166-7.314-3.135L2.09,16.719
			C-1.372,12.102-0.436,5.553,4.18,2.09c3.715-2.786,8.824-2.786,12.539,0l99.788,99.788c4.04,3.706,4.31,9.986,0.603,14.025
			c-0.192,0.21-0.394,0.411-0.603,0.603C114.578,118.475,111.949,119.602,109.192,119.641z"/>
	</g>
	<polygon style="fill:#00CEB4;" points="338.025,235.625 235.625,338.025 147.331,249.208 249.209,147.331 	"/>
</g>
<g>
</g>
<g>
</g>
<g>
</g>
<g>
</g>
<g>
</g>
<g>
</g>
<g>
</g>
<g>
</g>
<g>
</g>
<g>
</g>
<g>
</g>
<g>
</g>
<g>
</g>
<g>
</g>
<g>
</g>
</svg>
