<?xml version="1.0" encoding="iso-8859-1"?>
<!-- Generator: Adobe Illustrator 19.0.0, SVG Export Plug-In . SVG Version: 6.00 Build 0)  -->
<svg version="1.1" id="Capa_1" xmlns="http://www.w3.org/2000/svg" xmlns:xlink="http://www.w3.org/1999/xlink" x="0px" y="0px"
	 viewBox="0 0 496.042 496.042" style="enable-background:new 0 0 496.042 496.042;" xml:space="preserve">
<polygon style="fill:#CCD1D9;" points="479.634,416.021 495.634,472.021 175.634,472.021 263.634,368.021 287.634,384.021 
	367.634,304.021 "/>
<polygon style="fill:#AAB2BD;" points="479.634,416.021 367.634,304.021 351.634,320.021 455.634,424.021 468.018,472.021 
	495.634,472.021 "/>
<path style="fill:#FFCE54;" d="M495.634,92.021c0,27.6-16.4,51.28-40,61.92c-8.552,3.92-18,6.08-28,6.08s-19.44-2.16-28-6
	c-23.592-10.64-40-34.4-40-62c0-37.6,30.408-68,68-68C465.162,24.021,495.634,54.421,495.634,92.021z"/>
<path style="fill:#F6BB42;" d="M427.634,24.021c-5.52,0-10.864,0.728-16.016,1.968c29.816,7.192,52.016,33.96,52.016,66.032
	c0,27.6-16.4,51.28-40,61.92c-3.832,1.76-7.864,3.104-12.024,4.112c5.144,1.248,10.488,1.968,16.024,1.968c10,0,19.448-2.16,28-6.08
	c23.6-10.64,40-34.32,40-61.92C495.634,54.421,465.162,24.021,427.634,24.021z"/>
<g>
	<path style="fill:#EDAB37;" d="M455.634,153.941c-8.552,3.92-18,6.08-28,6.08s-19.44-2.16-28-6c-23.592-10.64-40-34.4-40-62v32
		c0,27.52,16.408,51.28,40,62c8.56,3.84,18,6,28,6s19.448-2.16,28-6.08c23.6-10.64,40-34.4,40-61.92v-32
		C495.634,119.621,479.234,143.301,455.634,153.941z"/>
	<path style="fill:#EDAB37;" d="M496.042,284.021v24c0,15.44-12.56,28-28,28c-15.448,0-28-12.56-28-28v-24c0,15.44,12.552,28,28,28
		C483.482,312.021,496.042,299.461,496.042,284.021z"/>
</g>
<g>
	<path style="fill:#FFCE54;" d="M496.042,284.021c0,15.44-12.56,28-28,28c-15.448,0-28-12.56-28-28s12.552-28,28-28
		C483.482,256.021,496.042,268.581,496.042,284.021z"/>
	<circle style="fill:#FFCE54;" cx="396.018" cy="244.021" r="20"/>
</g>
<path style="fill:#CCD1D9;" d="M304.522,299.141l-90.48-90.48l-22.64-22.64l-90.488-90.48c0,0,70.96,16.16,120.72,60.232
	c4,3.52,7.92,7.2,11.68,10.96c3.768,3.76,7.448,7.68,10.96,11.68C288.354,228.181,304.522,299.141,304.522,299.141z"/>
<g>
	<path style="fill:#965353;" d="M253.634,169.061l-9.36,9.36c-3.512-4-7.192-7.92-10.96-11.68c-3.76-3.76-7.68-7.44-11.68-10.96
		l9.36-9.36L253.634,169.061z"/>
	<path style="fill:#965353;" d="M27.314,395.381c-6.232,6.24-16.32,6.24-22.64,0c-6.232-6.32-6.232-16.4,0-22.64l186.728-186.72
		l22.64,22.64L27.314,395.381z"/>
</g>
<g>
	<path style="fill:#FFCE54;" d="M335.594,304.021c-4.424,0-8-3.576-8-8v-48c0-4.424,3.576-8,8-8s8,3.576,8,8v48
		C343.594,300.445,340.018,304.021,335.594,304.021z"/>
	<path style="fill:#FFCE54;" d="M295.594,336.021h-48c-4.424,0-8-3.576-8-8s3.576-8,8-8h48c4.424,0,8,3.576,8,8
		S300.018,336.021,295.594,336.021z"/>
</g>
<path style="fill:#EDAB37;" d="M453.578,84.597c1.256-2.608,2.016-5.504,2.016-8.576c0-11.032-8.968-20-20-20h-4
	c0-4.424-3.576-8-8-8s-8,3.576-8,8h-8c-4.424,0-8,3.576-8,8s3.576,8,8,8v40c-4.424,0-8,3.576-8,8c0,4.424,3.576,8,8,8h8
	c0,4.424,3.576,8,8,8s8-3.576,8-8h8c13.232,0,24-10.768,24-24C463.594,96.021,459.618,88.965,453.578,84.597z M435.594,72.021
	c2.2,0,4,1.8,4,4s-1.8,4-4,4h-12v-8H435.594z M439.594,112.021h-16v-16h16c4.416,0,8,3.592,8,8S444.01,112.021,439.594,112.021z"/>
<g>
	<path style="fill:#DB9531;" d="M447.594,156.949v32c2.752-0.848,5.448-1.824,8.04-3.008c2.768-1.248,5.408-2.704,7.96-4.296v-32
		c-2.552,1.592-5.192,3.048-7.96,4.296C453.042,155.133,450.346,156.101,447.594,156.949z"/>
	<path style="fill:#DB9531;" d="M391.594,149.677v31.976c2.576,1.616,5.248,3.104,8.04,4.368c2.568,1.16,5.24,2.104,7.96,2.936v-32
		c-2.72-0.832-5.392-1.784-7.96-2.936C396.85,152.765,394.178,151.285,391.594,149.677z"/>
</g>
<g>
</g>
<g>
</g>
<g>
</g>
<g>
</g>
<g>
</g>
<g>
</g>
<g>
</g>
<g>
</g>
<g>
</g>
<g>
</g>
<g>
</g>
<g>
</g>
<g>
</g>
<g>
</g>
<g>
</g>
</svg>
