<?xml version="1.0" encoding="iso-8859-1"?>
<!-- Generator: Adobe Illustrator 19.0.0, SVG Export Plug-In . SVG Version: 6.00 Build 0)  -->
<svg version="1.1" id="Capa_1" xmlns="http://www.w3.org/2000/svg" xmlns:xlink="http://www.w3.org/1999/xlink" x="0px" y="0px"
	 viewBox="0 0 512 512" style="enable-background:new 0 0 512 512;" xml:space="preserve">
<g>
	<circle style="fill:#4DA7FF;" cx="256" cy="256" r="119.467"/>
	<polygon style="fill:#4DA7FF;" points="93.867,8.533 8.533,8.533 8.533,76.8 51.2,76.8 93.867,76.8 	"/>
	<polygon style="fill:#4DA7FF;" points="503.467,8.533 418.133,8.533 418.133,76.8 460.8,76.8 503.467,76.8 	"/>
	<polygon style="fill:#4DA7FF;" points="93.867,401.067 8.533,401.067 8.533,469.333 51.2,469.333 93.867,469.333 	"/>
	<polygon style="fill:#4DA7FF;" points="503.467,401.067 418.133,401.067 418.133,469.333 460.8,469.333 503.467,469.333 	"/>
</g>
<path style="fill:#2F7FC1;" d="M256,136.533c-65.98,0-119.467,53.487-119.467,119.467S190.02,375.467,256,375.467
	S375.467,321.98,375.467,256C375.398,190.046,321.954,136.602,256,136.533z M344.798,205.218
	c7.45,12.945,11.947,27.366,13.167,42.249h-42.436c-0.384-12.45-1.775-24.849-4.181-37.069
	C323.311,209.067,334.558,207.36,344.798,205.218z M334.097,189.926c-8.414,1.519-17.442,2.79-26.948,3.78
	c-3.362-11.827-8.457-23.091-15.104-33.434C308.352,166.426,322.825,176.631,334.097,189.926z M213.53,247.467
	c0.384-11.93,1.792-23.799,4.198-35.49c12.348,0.896,25.207,1.357,38.272,1.357c13.065,0,25.924-0.461,38.272-1.357
	c2.406,11.691,3.814,23.561,4.198,35.49H213.53z M298.47,264.533c-0.384,11.93-1.792,23.799-4.198,35.49
	c-12.348-0.896-25.207-1.357-38.272-1.357c-13.065,0-25.924,0.461-38.272,1.357c-2.406-11.691-3.814-23.561-4.198-35.49H298.47z
	 M256,153.6c12.305,0,25.429,15.684,33.835,41.557c-10.948,0.708-22.281,1.109-33.835,1.109c-11.554,0-22.886-0.401-33.835-1.109
	C230.571,169.284,243.695,153.6,256,153.6z M219.955,160.273c-6.647,10.342-11.742,21.606-15.104,33.434
	c-9.506-0.99-18.534-2.261-26.948-3.78C189.175,176.631,203.648,166.426,219.955,160.273z M167.202,205.218
	c10.24,2.133,21.487,3.874,33.451,5.18c-2.406,12.22-3.797,24.619-4.181,37.069h-42.436
	C155.255,232.585,159.753,218.163,167.202,205.218z M167.202,306.765c-7.441-12.937-11.938-27.358-13.167-42.231h42.436
	c0.384,12.45,1.775,24.849,4.181,37.069c-11.964,1.331-23.211,3.038-33.451,5.18V306.765z M177.903,322.057
	c8.414-1.519,17.442-2.79,26.948-3.78c3.362,11.827,8.457,23.091,15.104,33.434c-16.307-6.153-30.78-16.35-42.052-29.636
	L177.903,322.057z M256,358.4c-12.305,0-25.429-15.684-33.835-41.557c10.948-0.708,22.281-1.109,33.835-1.109
	c11.554,0,22.886,0.401,33.835,1.109C281.429,342.716,268.305,358.4,256,358.4z M292.045,351.727
	c6.647-10.342,11.742-21.606,15.104-33.434c9.506,0.99,18.534,2.261,26.948,3.78C322.825,335.369,308.352,345.574,292.045,351.727z
	 M344.798,306.782c-10.24-2.133-21.487-3.874-33.451-5.18c2.406-12.22,3.797-24.619,4.181-37.069h42.436
	C356.745,279.415,352.247,293.837,344.798,306.782z"/>
<g>
	<path style="fill:#A5A5A5;" d="M93.867,0H8.533C3.823,0,0,3.823,0,8.533V76.8c0,4.71,3.823,8.533,8.533,8.533h34.133V102.4H8.533
		v17.067h85.333V102.4H59.733V85.333h34.133c4.71,0,8.533-3.823,8.533-8.533V8.533C102.4,3.823,98.577,0,93.867,0z M85.333,68.267
		H17.067v-51.2h68.267V68.267z"/>
	<path style="fill:#A5A5A5;" d="M503.467,0h-85.333c-4.71,0-8.533,3.823-8.533,8.533V76.8c0,4.71,3.823,8.533,8.533,8.533h34.133
		V102.4h-34.133v17.067h85.333V102.4h-34.133V85.333h34.133c4.71,0,8.533-3.823,8.533-8.533V8.533C512,3.823,508.177,0,503.467,0z
		 M494.933,68.267h-68.267v-51.2h68.267V68.267z"/>
	<path style="fill:#A5A5A5;" d="M93.867,392.533H8.533c-4.71,0-8.533,3.823-8.533,8.533v68.267c0,4.71,3.823,8.533,8.533,8.533
		h34.133v17.067H0V512h102.4v-17.067H59.733v-17.067h34.133c4.71,0,8.533-3.823,8.533-8.533v-68.267
		C102.4,396.356,98.577,392.533,93.867,392.533z M85.333,460.8H17.067v-51.2h68.267V460.8z"/>
	<path style="fill:#A5A5A5;" d="M503.467,392.533h-85.333c-4.71,0-8.533,3.823-8.533,8.533v68.267c0,4.71,3.823,8.533,8.533,8.533
		h34.133v17.067H409.6V512H512v-17.067h-42.667v-17.067h34.133c4.71,0,8.533-3.823,8.533-8.533v-68.267
		C512,396.356,508.177,392.533,503.467,392.533z M494.933,460.8h-68.267v-51.2h68.267V460.8z"/>
</g>
<g>
	<path style="fill:#FFCF40;" d="M147.763,119.023l-5.393-16.213l-25.6,8.533c-2.551,0.836-4.557,2.842-5.393,5.393l-8.533,25.6
		l16.213,5.393l4.173-12.501l24.371,24.371l12.066-12.066l-24.371-24.371L147.763,119.023z"/>
	<path style="fill:#FFCF40;" d="M364.433,159.633l24.371-24.371l4.173,12.501l16.213-5.393l-8.533-25.6
		c-0.836-2.551-2.842-4.557-5.393-5.393l-25.6-8.533l-5.393,16.213l12.501,4.173l-24.371,24.371L364.433,159.633z"/>
	<path style="fill:#FFCF40;" d="M147.567,352.367l-24.371,24.371l-4.173-12.501l-16.213,5.393l8.533,25.6
		c0.836,2.551,2.842,4.557,5.393,5.393l25.6,8.533l5.393-16.213l-12.501-4.173l24.371-24.371L147.567,352.367z"/>
	<path style="fill:#FFCF40;" d="M388.804,376.738l-24.371-24.371l-12.066,12.066l24.371,24.371l-12.501,4.173l5.393,16.213
		l25.6-8.533c2.551-0.836,4.557-2.842,5.393-5.393l8.533-25.6l-16.213-5.393L388.804,376.738z"/>
</g>
<g>
	<rect x="247.467" y="34.133" style="fill:#666666;" width="17.067" height="68.267"/>
	<rect x="247.467" style="fill:#666666;" width="17.067" height="17.067"/>
	
		<rect x="286.599" y="102.398" transform="matrix(-0.7071 0.7071 -0.7071 -0.7071 588.2935 -21.8158)" style="fill:#666666;" width="24.132" height="17.067"/>
	
		<rect x="204.798" y="98.866" transform="matrix(-0.7071 0.7071 -0.7071 -0.7071 442.6204 38.5239)" style="fill:#666666;" width="17.067" height="24.132"/>
	<rect x="247.467" y="409.6" style="fill:#666666;" width="17.067" height="68.267"/>
	<rect x="247.467" y="494.933" style="fill:#666666;" width="17.067" height="17.067"/>
	
		<rect x="290.127" y="389.002" transform="matrix(-0.7071 0.7071 -0.7071 -0.7071 793.4424 473.4821)" style="fill:#666666;" width="17.067" height="24.132"/>
	
		<rect x="206.413" y="390.394" transform="matrix(-0.7071 0.7071 -0.7071 -0.7071 649.9023 528.6563)" style="fill:#666666;" width="18.099" height="17.067"/>
	<rect x="409.6" y="247.467" style="fill:#666666;" width="68.267" height="17.067"/>
	<rect x="494.933" y="247.467" style="fill:#666666;" width="17.067" height="17.067"/>
	
		<rect x="389.002" y="204.798" transform="matrix(-0.7071 0.7071 -0.7071 -0.7071 835.5148 80.5817)" style="fill:#666666;" width="24.132" height="17.067"/>
	
		<rect x="392.535" y="286.599" transform="matrix(-0.7071 0.7071 -0.7071 -0.7071 895.8546 226.2548)" style="fill:#666666;" width="17.067" height="24.132"/>
	<rect x="34.133" y="247.467" style="fill:#666666;" width="68.267" height="17.067"/>
	<rect y="247.467" style="fill:#666666;" width="17.067" height="17.067"/>
	
		<rect x="102.398" y="201.269" transform="matrix(-0.7071 0.7071 -0.7071 -0.7071 340.2228 285.7452)" style="fill:#666666;" width="17.067" height="24.132"/>
	
		<rect x="98.857" y="290.127" transform="matrix(-0.7071 0.7071 -0.7071 -0.7071 400.542 431.4098)" style="fill:#666666;" width="24.132" height="17.067"/>
</g>
<g>
</g>
<g>
</g>
<g>
</g>
<g>
</g>
<g>
</g>
<g>
</g>
<g>
</g>
<g>
</g>
<g>
</g>
<g>
</g>
<g>
</g>
<g>
</g>
<g>
</g>
<g>
</g>
<g>
</g>
</svg>
