<?xml version="1.0" encoding="iso-8859-1"?>
<!-- Generator: Adobe Illustrator 19.0.0, SVG Export Plug-In . SVG Version: 6.00 Build 0)  -->
<svg version="1.1" id="Layer_1" xmlns="http://www.w3.org/2000/svg" xmlns:xlink="http://www.w3.org/1999/xlink" x="0px" y="0px"
	 viewBox="0 0 512 512" style="enable-background:new 0 0 512 512;" xml:space="preserve">
<path style="fill:#03437C;" d="M438.857,257.866v10.571v2.639c19.231,6.137,33.203,24.187,33.203,45.449
	c0,3.514,2.848,6.364,6.362,6.364c3.514,0,6.363-2.85,6.363-6.364C484.786,288.191,465.192,264.36,438.857,257.866z"/>
<path style="fill:#0853A4;" d="M393.459,221.308h-43.633c-18.725,0-35.056,10.203-43.783,25.351h-68.23
	c-4.631-67.491-60.734-120.816-129.313-120.898c8.498,9.526,13.671,22.089,13.671,35.865v16.902c0,3.392-0.316,6.71-0.915,9.929
	c11.706,19.336,18.531,41.962,18.726,66.178v82.369h1.798v9.54h300.327v-9.54h1.872v-1.608v-41.198v-22.316
	C443.979,243.95,421.359,221.308,393.459,221.308z"/>
<path style="fill:#E02424;" d="M442.107,361.634v-15.089H141.78v15.089h-1.798v1.919V496.99h43.265v-84.608
	c0-8.718,7.124-15.847,15.829-15.847h7.912V496.99h43.267V396.535h36.414c8.708,0,15.829,7.129,15.829,15.847v84.608h43.268v-80.384
	h54.945v80.384h43.268v-96.229v-37.208v-1.919L442.107,361.634L442.107,361.634z"/>
<path style="fill:#971311;" d="M139.982,483.042v23.731c0,2.876,2.352,5.228,5.228,5.228h32.81c2.876,0,5.228-2.352,5.228-5.228
	v-23.731H139.982z"/>
<g>
	<path style="opacity:0.1;fill:#231F20;enable-background:new    ;" d="M163.203,506.772V363.553v-1.919H141.78h-1.798v1.919
		v143.219c0,2.876,2.352,5.228,5.228,5.228h23.221C165.555,512,163.203,509.648,163.203,506.772z"/>
	<path style="opacity:0.1;fill:#231F20;enable-background:new    ;" d="M316.279,416.443h-13.781v90.329
		c0,2.876,2.353,5.228,5.228,5.228h13.781v-90.329C321.507,418.795,319.155,416.443,316.279,416.443z"/>
</g>
<path style="fill:#971311;" d="M302.498,483.042v23.731c0,2.876,2.353,5.228,5.228,5.228h32.812c2.876,0,5.228-2.352,5.228-5.228
	v-23.731H302.498z"/>
<path style="opacity:0.1;fill:#231F20;enable-background:new    ;" d="M139.982,337.004h1.798h21.369v-82.369
	c-0.284-35.422-14.724-67.465-37.937-90.74v14.634c0,4.732-0.622,9.318-1.767,13.691c10.36,18.483,16.354,39.753,16.536,62.415
	v82.369H139.982z"/>
<rect x="139.985" y="337" style="fill:#E0E0E0;" width="304.003" height="24.629"/>
<rect x="139.985" y="337" style="opacity:0.1;fill:#231F20;enable-background:new    ;" width="23.165" height="24.629"/>
<g>
	<path style="fill:#FFFFFF;" d="M381.062,312.759c-0.573,0-1.132-0.113-1.658-0.333l-10.044-4.216
		c-0.199-0.086-0.408-0.129-0.619-0.129c-0.212,0-0.424,0.043-0.622,0.129l-10.04,4.216c-0.529,0.22-1.083,0.333-1.659,0.333
		c-0.913,0-1.785-0.282-2.52-0.817c-1.207-0.875-1.879-2.334-1.754-3.816l0.915-10.834c0.04-0.433-0.101-0.856-0.385-1.183
		l-7.121-8.226c-0.972-1.125-1.292-2.701-0.833-4.115c0.463-1.414,1.651-2.507,3.1-2.844l10.608-2.481
		c0.42-0.094,0.783-0.357,1.004-0.725l5.637-9.303c0.773-1.273,2.179-2.064,3.671-2.064c1.49,0,2.894,0.791,3.668,2.064l5.637,9.303
		c0.22,0.369,0.585,0.631,1.003,0.725l10.607,2.481c1.451,0.336,2.638,1.429,3.103,2.845c0.46,1.413,0.139,2.987-0.835,4.113
		l-7.121,8.226c-0.279,0.327-0.421,0.75-0.383,1.183l0.912,10.833c0.13,1.482-0.544,2.94-1.75,3.816
		C382.844,312.478,381.977,312.759,381.062,312.759z"/>
	<path style="fill:#FFFFFF;" d="M308.278,312.759c-0.572,0-1.132-0.113-1.657-0.333l-10.041-4.216
		c-0.2-0.086-0.409-0.129-0.622-0.129c-0.21,0-0.423,0.043-0.621,0.129l-10.04,4.216c-0.527,0.22-1.083,0.333-1.659,0.333
		c-0.912,0-1.784-0.282-2.52-0.817c-1.205-0.875-1.877-2.334-1.754-3.816l0.916-10.834c0.038-0.433-0.1-0.856-0.385-1.183
		l-7.122-8.226c-0.972-1.125-1.29-2.701-0.832-4.115c0.461-1.414,1.65-2.507,3.099-2.844l10.608-2.481
		c0.419-0.094,0.783-0.357,1.005-0.725l5.636-9.303c0.773-1.273,2.179-2.064,3.67-2.064c1.493,0,2.896,0.791,3.67,2.064l5.638,9.303
		c0.219,0.369,0.583,0.631,1.002,0.725l10.609,2.481c1.45,0.336,2.637,1.429,3.1,2.845c0.461,1.413,0.14,2.987-0.835,4.113
		l-7.12,8.226c-0.28,0.327-0.422,0.75-0.383,1.183l0.912,10.833c0.13,1.482-0.544,2.94-1.749,3.816
		C310.062,312.478,309.194,312.759,308.278,312.759z"/>
	<path style="fill:#FFFFFF;" d="M235.731,312.759c-0.573,0-1.133-0.113-1.659-0.333l-10.041-4.216
		c-0.199-0.086-0.409-0.129-0.619-0.129c-0.212,0-0.424,0.043-0.622,0.129l-10.04,4.216c-0.529,0.22-1.083,0.333-1.659,0.333
		c-0.913,0-1.785-0.282-2.519-0.817c-1.207-0.875-1.879-2.334-1.754-3.816l0.915-10.834c0.039-0.433-0.101-0.856-0.386-1.183
		l-7.121-8.226c-0.972-1.125-1.29-2.701-0.833-4.115c0.463-1.414,1.651-2.507,3.1-2.844l10.607-2.481
		c0.42-0.094,0.783-0.357,1.004-0.725l5.636-9.303c0.773-1.273,2.18-2.064,3.672-2.064c1.49,0,2.895,0.791,3.668,2.064l5.638,9.303
		c0.22,0.369,0.584,0.631,1.002,0.725l10.609,2.481c1.451,0.336,2.637,1.429,3.103,2.845c0.459,1.413,0.139,2.987-0.836,4.113
		l-7.12,8.226c-0.28,0.327-0.422,0.75-0.382,1.183l0.911,10.833c0.129,1.482-0.544,2.94-1.749,3.816
		C237.514,312.478,236.645,312.759,235.731,312.759z"/>
</g>
<g>
	<path style="fill:#971311;" d="M400.711,483.042v23.731c0,2.876,2.352,5.228,5.228,5.228h32.812c2.876,0,5.228-2.352,5.228-5.228
		v-23.731H400.711z"/>
	<path style="fill:#971311;" d="M206.988,483.042v23.731c0,2.876,2.352,5.228,5.228,5.228h32.812c2.875,0,5.228-2.352,5.228-5.228
		v-23.731H206.988z"/>
</g>
<g style="opacity:0.1;">
	<path style="fill:#231F20;" d="M212.216,395.81c-2.876,0-5.228,2.352-5.228,5.228v105.734c0,2.876,2.352,5.228,5.228,5.228h8.554
		c2.876,0,5.228-2.352,5.228-5.228V401.038c0-2.876-2.352-5.228-5.228-5.228H212.216z"/>
</g>
<g style="opacity:0.1;">
	<path style="fill:#231F20;" d="M405.94,414.135c-2.876,0-5.228,2.352-5.228,5.228v87.41c0,2.876,2.352,5.228,5.228,5.228h8.555
		c2.875,0,5.228-2.352,5.228-5.228v-87.41c0-2.876-2.352-5.228-5.228-5.228H405.94z"/>
</g>
<path style="fill:#03437C;" d="M49.64,124.603c13.977,9.043,39.929-14.594,57.253-41.424c17.323-26.832,28.194-60.227,14.218-69.268
	c-0.559-0.365-1.174-0.685-1.828-0.959c-1.589-0.664-3.425-0.092-4.36,1.355L47.459,118.791c-0.934,1.448-0.699,3.358,0.557,4.538
	C48.535,123.811,49.081,124.241,49.64,124.603z"/>
<path style="fill:#0853A4;" d="M71.394,107.752c-2.994,0-5.925,0.255-8.784,0.726c3.816-12.158,5.793-27.587,5.793-42.575
	C68.402,33.956,59.423,0,42.781,0c-0.666,0-1.356,0.066-2.053,0.19C39.033,0.494,37.8,1.972,37.8,3.696V119.55
	c-12.324,9.872-20.225,25.047-20.225,42.076v73.092h62.436v-3.01c25.625-4.13,45.202-26.363,45.202-53.18v-16.902
	C125.213,131.872,101.117,107.752,71.394,107.752z"/>
<path style="fill:#EFD4C2;" d="M17.575,232.404v24.785c0,17.261,13.976,31.252,31.217,31.252c17.241,0,31.218-13.992,31.218-31.252
	v-24.785H17.575z"/>
<path d="M47.123,188.6c-4.396,0-7.959-3.563-7.959-7.958V161.71c0-4.397,3.563-7.959,7.959-7.959c4.395,0,7.959,3.562,7.959,7.959
	v18.931C55.081,185.037,51.518,188.6,47.123,188.6z"/>
<path style="fill:#BFA083;" d="M39.344,265.34c-4.396,0-7.959-3.563-7.959-7.958v-5.389c0-4.396,3.563-7.959,7.959-7.959
	s7.958,3.563,7.958,7.959v5.389C47.301,261.776,43.738,265.34,39.344,265.34z"/>
<g style="opacity:0.1;">
	<path style="fill:#231F20;" d="M34.116,257.233v-95.562c0-17.03,3.695-42.077,3.695-42.077
		c-12.324,9.872-20.225,25.047-20.225,42.077v95.562c0,17.261,13.976,31.252,31.218,31.252c2.861,0,5.632-0.395,8.265-1.116
		C43.84,283.742,34.116,271.627,34.116,257.233z"/>
</g>
<path style="fill:#03437C;" d="M87.771,217.339c-5.492,0-10.317,2.831-13.116,7.106H17.575v7.959v2.314v5.643h56.357
	c2.634,4.95,7.841,8.324,13.84,8.324c8.656,0,15.673-7.016,15.673-15.673S96.427,217.339,87.771,217.339z"/>
<g style="opacity:0.1;">
	<path style="fill:#231F20;" d="M359.455,221.308h-9.629c-18.725,0-35.056,10.203-43.783,25.351h9.629
		C324.399,231.512,340.731,221.308,359.455,221.308z"/>
</g>
<path style="fill:#E02424;" d="M478.138,373.259c-0.921,0-1.841-0.335-2.565-1.001c-8.725-8.027-13.726-19.427-13.726-31.274
	c0-11.85,5.002-23.249,13.727-31.274c0.723-0.668,1.644-1.001,2.563-1.001c0.919,0,1.838,0.333,2.564,1.001
	c8.723,8.025,13.726,19.424,13.724,31.274c0.002,11.847-5.001,23.247-13.725,31.274
	C479.976,372.923,479.056,373.259,478.138,373.259z"/>
<g>
</g>
<g>
</g>
<g>
</g>
<g>
</g>
<g>
</g>
<g>
</g>
<g>
</g>
<g>
</g>
<g>
</g>
<g>
</g>
<g>
</g>
<g>
</g>
<g>
</g>
<g>
</g>
<g>
</g>
</svg>
