<?xml version="1.0" encoding="iso-8859-1"?>
<!-- Generator: Adobe Illustrator 19.0.0, SVG Export Plug-In . SVG Version: 6.00 Build 0)  -->
<svg version="1.1" id="Capa_1" xmlns="http://www.w3.org/2000/svg" xmlns:xlink="http://www.w3.org/1999/xlink" x="0px" y="0px"
	 viewBox="0 0 512 512" style="enable-background:new 0 0 512 512;" xml:space="preserve">
<circle style="fill:#FFCD00;" cx="256" cy="256" r="256"/>
<path style="fill:#FF8E00;" d="M512,256c0-19.095-2.108-37.694-6.073-55.596l-37.937-37.937l-127.435,25.324l-88.614-89.794
	l-128.94,171.92l45.916,45.703l-45.916,127.374l57.762,57.762C204.554,508.06,229.816,512,256,512C397.385,512,512,397.385,512,256z
	"/>
<g>
	<polygon style="fill:#BD2B0F;" points="187.472,97.997 173.984,154.464 251.942,140.977 251.942,97.997 	"/>
	<polygon style="fill:#BD2B0F;" points="187.472,269.917 251.942,269.917 251.942,226.937 173.984,213.449 	"/>
</g>
<g>
	<polygon style="fill:#DB5925;" points="187.472,97.997 123.002,97.997 123.002,140.977 187.472,154.464 	"/>
	<polygon style="fill:#DB5925;" points="123.002,226.937 123.002,269.917 187.472,269.917 187.472,213.449 	"/>
</g>
<path style="fill:#0082AE;" d="M251.942,442.994v-65.627c0-35.606-28.864-64.47-64.47-64.47l0,0l-13.487,72.277l13.487,57.82
	L251.942,442.994L251.942,442.994z"/>
<path style="fill:#00B9ED;" d="M123.002,377.367v65.627h64.47V312.897l0,0C151.866,312.897,123.002,341.761,123.002,377.367z"/>
<rect x="155.87" y="368.92" style="fill:#FFED94;" width="20.21" height="28.653"/>
<rect x="198.85" y="368.92" style="fill:#FFCD00;" width="20.21" height="28.653"/>
<rect x="223.41" y="162.47" style="fill:#BD2B0F;" width="244.58" height="42.98"/>
<polygon style="fill:#782E1C;" points="187.472,226.937 251.942,226.937 251.942,140.977 187.472,140.977 173.984,183.957 "/>
<rect x="123" y="140.98" style="fill:#BD2B0F;" width="64.47" height="85.96"/>
<g>
</g>
<g>
</g>
<g>
</g>
<g>
</g>
<g>
</g>
<g>
</g>
<g>
</g>
<g>
</g>
<g>
</g>
<g>
</g>
<g>
</g>
<g>
</g>
<g>
</g>
<g>
</g>
<g>
</g>
</svg>
