<?xml version="1.0" encoding="iso-8859-1"?>
<!-- Generator: Adobe Illustrator 19.0.0, SVG Export Plug-In . SVG Version: 6.00 Build 0)  -->
<svg version="1.1" id="Capa_1" xmlns="http://www.w3.org/2000/svg" xmlns:xlink="http://www.w3.org/1999/xlink" x="0px" y="0px"
	 viewBox="0 0 512 512" style="enable-background:new 0 0 512 512;" xml:space="preserve">
<g>
	<path style="fill:#DBD9DC;" d="M29.656,397.656l-11.313-11.313l64.969-64.969c5.953-5.957,14.195-9.375,22.625-9.375H152v16
		h-46.063c-4.211,0-8.336,1.707-11.313,4.688L29.656,397.656z"/>
	<path style="fill:#DBD9DC;" d="M406.063,200H360v-16h46.063c4.211,0,8.336-1.707,11.313-4.688l64.969-64.969l11.313,11.313
		l-64.969,64.969C422.734,196.582,414.492,200,406.063,200z"/>
	<path style="fill:#DBD9DC;" d="M200,152h-16v-46.059c0-4.27-1.664-8.289-4.688-11.316l-64.969-64.969l11.313-11.313l64.969,64.969
		c6.047,6.051,9.375,14.086,9.375,22.629V152z"/>
	<path style="fill:#DBD9DC;" d="M386.344,493.656l-64.969-64.969c-6.047-6.051-9.375-14.086-9.375-22.629V360h16v46.059
		c0,4.27,1.664,8.289,4.688,11.316l64.969,64.969L386.344,493.656z"/>
</g>
<g>
	<rect x="312" y="40" style="fill:#C9C6CA;" width="16" height="112"/>
	<rect x="184" y="360" style="fill:#C9C6CA;" width="16" height="112"/>
	<rect x="40" y="184" style="fill:#C9C6CA;" width="112" height="16"/>
	<rect x="360" y="312" style="fill:#C9C6CA;" width="112" height="16"/>
</g>
<g>
	<path style="fill:#DBD9DC;" d="M280,416V96c0-4.418,3.582-8,8-8l0,0c4.418,0,8,3.582,8,8v320c0,4.418-3.582,8-8,8l0,0
		C283.582,424,280,420.418,280,416z"/>
	<path style="fill:#DBD9DC;" d="M216,416V96c0-4.418,3.582-8,8-8l0,0c4.418,0,8,3.582,8,8v320c0,4.418-3.582,8-8,8l0,0
		C219.582,424,216,420.418,216,416z"/>
</g>
<path style="fill:#C9C6CA;" d="M248,504V8c0-4.422,3.582-8,8-8s8,3.578,8,8v496c0,4.422-3.582,8-8,8S248,508.422,248,504z"/>
<g>
	<path style="fill:#DBD9DC;" d="M416,232H96c-4.418,0-8-3.582-8-8l0,0c0-4.418,3.582-8,8-8h320c4.418,0,8,3.582,8,8l0,0
		C424,228.418,420.418,232,416,232z"/>
	<path style="fill:#DBD9DC;" d="M416,296H96c-4.418,0-8-3.582-8-8l0,0c0-4.418,3.582-8,8-8h320c4.418,0,8,3.582,8,8l0,0
		C424,292.418,420.418,296,416,296z"/>
</g>
<path style="fill:#C9C6CA;" d="M504,264H8c-4.422,0-8-3.582-8-8s3.578-8,8-8h496c4.422,0,8,3.582,8,8S508.422,264,504,264z"/>
<path style="fill:#4BD7C8;" d="M344,376H168c-17.673,0-32-14.327-32-32V168c0-17.673,14.327-32,32-32h176c17.673,0,32,14.327,32,32
	v176C376,361.673,361.673,376,344,376z"/>
<path style="fill:#99E9DF;" d="M344,360H168c-8.837,0-16-7.163-16-16V168c0-8.837,7.163-16,16-16h176c8.837,0,16,7.163,16,16v176
	C360,352.837,352.837,360,344,360z"/>
<path style="fill:#CCF4EF;" d="M336,236c0-16.092-11.721-29.589-27.732-34.186c0.434-1.897,0.732-3.828,0.732-5.814
	c0-15.438-13.68-28-30.5-28c-8.898,0-16.922,3.516-22.5,9.117c-5.578-5.602-13.602-9.117-22.5-9.117c-16.82,0-30.5,12.563-30.5,28
	c0,1.926,0.211,3.82,0.617,5.664C187.625,206.27,176,219.922,176,236c0,7.839,2.816,15.194,7.878,21.335
	C178.943,263.842,176,271.637,176,280c0,12.815,6.814,24.771,18.028,32.25C194.179,329.776,209.796,344,229,344
	c10.925,0,20.576-4.696,27-11.891c6.424,7.194,16.075,11.891,27,11.891c18.423,0,33.407-13.126,34.742-29.666
	C328.969,307.784,336,296.353,336,284c0-8.941-3.742-17.48-10.195-24C332.258,253.48,336,244.941,336,236z M308.758,267.074
	C315.797,270.789,320,277.117,320,284c0,4.925-2.229,9.617-5.979,13.232c-4.051-7.116-10.948-12.773-19.622-15.498
	c-4.242-1.34-8.719,1.02-10.031,5.234c-1.32,4.215,1.023,8.707,5.234,10.031c7.414,2.328,12.398,8.355,12.398,15
	c0,8.824-8.523,16-19,16s-19-7.176-19-16v-48c0-8.824,8.523-16,19-16c4.422,0,8-3.582,8-8s-3.578-8-8-8
	c-7.011,0-13.518,1.938-19,5.197V228.5c0-4.418-3.578-8-8-8s-8,3.582-8,8v40.723c-2.357-1.398-4.86-2.627-7.602-3.488
	c-4.242-1.332-8.719,1.023-10.031,5.234c-1.32,4.215,1.023,8.707,5.234,10.031c7.414,2.328,12.398,8.355,12.398,15v16
	c0,8.824-8.523,16-19,16s-19-7.176-19-16c0-3.766,1.602-7.43,4.508-10.316c3.133-3.113,3.148-8.18,0.031-11.316
	c-3.117-3.133-8.18-3.152-11.313-0.035c-1.66,1.652-3.057,3.468-4.289,5.366C194.571,291.375,192,285.819,192,280
	c0-10.848,8.539-20.383,20.766-23.191c4.305-0.988,7-5.281,6.008-9.586c-0.992-4.309-5.297-6.98-9.586-6.008
	c-4.902,1.125-9.432,2.975-13.47,5.4c-2.4-3.163-3.718-6.813-3.718-10.615c0-10.922,10.344-19.828,23.133-19.996
	c1.648,0.07,3.313-0.352,4.773-1.316c3.383-2.227,4.563-6.641,2.75-10.266c-0.32-0.637-0.719-1.219-1.172-1.734
	C220.32,201.258,219,198.984,219,196c0-6.617,6.508-12,14.5-12s14.5,5.383,14.5,12c0,4.418,3.578,8,8,8s8-3.582,8-8
	c0-6.617,6.508-12,14.5-12s14.5,5.383,14.5,12c0,1.744-0.464,3.216-1.07,4.448c-4.146,0.437-8.206,1.26-12.023,2.869
	c-4.07,1.715-5.977,6.406-4.266,10.48c1.719,4.074,6.422,5.984,10.484,4.262c3.242-1.367,6.734-2.059,10.375-2.059
	c12.961,0,23.5,8.973,23.5,20c0,6.883-4.203,13.211-11.242,16.926c-2.625,1.383-4.266,4.109-4.266,7.074
	S306.133,265.691,308.758,267.074z"/>
<g>
	<circle style="fill:#4BD7C8;" cx="40" cy="192" r="16"/>
	<circle style="fill:#4BD7C8;" cx="472" cy="320" r="16"/>
</g>
<g>
	<circle style="fill:#99E9DF;" cx="24" cy="392" r="16"/>
	<circle style="fill:#99E9DF;" cx="488" cy="120" r="16"/>
</g>
<g>
	<circle style="fill:#4BD7C8;" cx="320" cy="40" r="16"/>
	<circle style="fill:#4BD7C8;" cx="192" cy="472" r="16"/>
</g>
<g>
	<circle style="fill:#99E9DF;" cx="120" cy="24" r="16"/>
	<circle style="fill:#99E9DF;" cx="392" cy="488" r="16"/>
</g>
<g>
</g>
<g>
</g>
<g>
</g>
<g>
</g>
<g>
</g>
<g>
</g>
<g>
</g>
<g>
</g>
<g>
</g>
<g>
</g>
<g>
</g>
<g>
</g>
<g>
</g>
<g>
</g>
<g>
</g>
</svg>
