<?xml version="1.0" encoding="iso-8859-1"?>
<!-- Generator: Adobe Illustrator 19.0.0, SVG Export Plug-In . SVG Version: 6.00 Build 0)  -->
<svg version="1.1" id="Capa_1" xmlns="http://www.w3.org/2000/svg" xmlns:xlink="http://www.w3.org/1999/xlink" x="0px" y="0px"
	 viewBox="0 0 512.001 512.001" style="enable-background:new 0 0 512.001 512.001;" xml:space="preserve">
<path style="fill:#FFB74F;" d="M265,512h-80v-65.64c0-40.494,16.689-79.869,45.788-108.029l33.711-32.624l46.975,70.461
	l-9.129,8.694C278.611,407.465,265,439.227,265,472V512z"/>
<path style="fill:#FF9A00;" d="M264.499,305.707L256,313.932V512h9v-40c0-32.774,13.611-64.535,37.345-87.138l9.129-8.694
	L264.499,305.707z"/>
<path style="fill:#FFDB2D;" d="M371.522,425.967h-1.045c-77.46,0-140.478-63.018-140.478-140.478v-25.456h282v25.456
	C512,362.949,448.982,425.967,371.522,425.967z"/>
<path style="fill:#FEC000;" d="M256,260.033v106.789c25.489,35.772,67.305,59.145,114.478,59.145h1.045
	c77.46,0,140.478-63.018,140.478-140.478v-25.456H256z"/>
<path style="fill:#FF9A00;" d="M451.894,374.106l-23.458-23.458c-7.408-7.408-19.463-7.408-26.871,0
	C392.31,359.904,380.005,365,366.917,365H353c-27.019,0-49-21.981-49-49v-42h30v42c0,10.477,8.523,19,19,19h13.917
	c5.075,0,9.846-1.977,13.435-5.564c19.105-19.105,50.191-19.105,69.297,0l23.458,23.458L451.894,374.106z"/>
<path style="fill:#78777F;" d="M512,290H95c-52.383,0-95-42.617-95-95C0,87.477,87.477,0,195,0h122c107.523,0,195,87.477,195,195
	V290z"/>
<path style="fill:#57555C;" d="M512,195C512,87.477,424.523,0,317,0h-61v290h256V195z"/>
<g>
	<rect x="241" y="195" style="fill:#FFDB2D;" width="30" height="40"/>
	<rect x="201" y="195" style="fill:#FFDB2D;" width="30" height="40"/>
</g>
<g>
	<rect x="281" y="195" style="fill:#FEC000;" width="30" height="40"/>
	<rect x="256" y="195" style="fill:#FEC000;" width="15" height="40"/>
</g>
<g>
	<rect x="241" y="65" style="fill:#FFDB2D;" width="30" height="40"/>
	<rect x="201" y="65" style="fill:#FFDB2D;" width="30" height="40"/>
</g>
<g>
	<rect x="281" y="65" style="fill:#FEC000;" width="30" height="40"/>
	<rect x="256" y="65" style="fill:#FEC000;" width="15" height="40"/>
	<rect x="301" y="135" style="fill:#FEC000;" width="40" height="30"/>
	<rect x="301" y="95" style="fill:#FEC000;" width="40" height="30"/>
	<rect x="301" y="175" style="fill:#FEC000;" width="40" height="30"/>
</g>
<g>
	<rect x="171" y="135" style="fill:#FFDB2D;" width="40" height="30"/>
	<rect x="171" y="95" style="fill:#FFDB2D;" width="40" height="30"/>
	<rect x="171" y="175" style="fill:#FFDB2D;" width="40" height="30"/>
</g>
<path style="fill:#AEADB3;" d="M161,290h-30v-47c0-5.514-4.486-10-10-10v-30c22.056,0,40,17.944,40,40V290z"/>
<g>
	<path style="fill:#78777F;" d="M373,290h-30v-38c0-24.813,20.187-45,45-45h16v30h-16c-8.271,0-15,6.729-15,15V290z"/>
	<rect x="440" y="223" style="fill:#78777F;" width="59" height="30"/>
	<path style="fill:#78777F;" d="M382,184h-30c0-24.262,19.738-44,44-44h17v30h-17C388.28,170,382,176.28,382,184z"/>
</g>
<path style="fill:#AEADB3;" d="M87,181H57v-16c0-15.99-13.01-29-29-29v-30c32.533,0,59,26.467,59,59V181z"/>
<path style="fill:#00C379;" d="M316,210H196V90h120V210z"/>
<rect x="256" y="90" style="fill:#00A753;" width="60" height="120"/>
<path style="fill:#78777F;" d="M431,166.5v-32c0-19.575-15.925-35.5-35.5-35.5c-3.032,0-5.5-2.468-5.5-5.5V14.19
	c-9.644-3.908-19.667-7.068-30-9.403V93.5c0,19.575,15.925,35.5,35.5,35.5c3.032,0,5.5,2.468,5.5,5.5v32
	c0,19.575,15.925,35.5,35.5,35.5H457v-30h-20.5C433.468,172,431,169.532,431,166.5z"/>
<path style="fill:#AEADB3;" d="M132,137.104v-24.892l19.606-19.606l-21.213-21.213L102,99.787v37.317
	C102,155.795,86.795,171,68.104,171H1.478C0.508,178.867,0,186.875,0,195c0,2.016,0.071,4.015,0.195,6h67.91
	C103.337,201,132,172.337,132,137.104z"/>
<g>
</g>
<g>
</g>
<g>
</g>
<g>
</g>
<g>
</g>
<g>
</g>
<g>
</g>
<g>
</g>
<g>
</g>
<g>
</g>
<g>
</g>
<g>
</g>
<g>
</g>
<g>
</g>
<g>
</g>
</svg>
