<?xml version="1.0" encoding="iso-8859-1"?>
<!-- Generator: Adobe Illustrator 19.0.0, SVG Export Plug-In . SVG Version: 6.00 Build 0)  -->
<svg version="1.1" id="Layer_1" xmlns="http://www.w3.org/2000/svg" xmlns:xlink="http://www.w3.org/1999/xlink" x="0px" y="0px"
	 viewBox="0 0 508 508" style="enable-background:new 0 0 508 508;" xml:space="preserve">
<circle style="fill:#90DFAA;" cx="254" cy="254" r="254"/>
<circle style="fill:#2C9984;" cx="254" cy="254" r="184"/>
<g>
	<path style="fill:#FFFFFF;" d="M184.4,214.8c3.2-8,2-15.6-2-17.2c-0.8-0.4-2-0.4-3.2,0c-4.4,1.2-9.2,0.8-13.6-0.8l-14.8-5.6
		l-7.6,19.6l14.8,5.6c4.4,1.6,8.4,4.4,10.8,8.4c0.4,0.8,1.2,1.6,2.4,2C175.6,228,181.2,222.8,184.4,214.8z"/>
	<path style="fill:#FFFFFF;" d="M184.4,292.4c-3.2-8-8.8-13.2-12.8-11.6c-0.8,0.4-1.6,1.2-2.4,2c-2.4,4-6.4,6.4-10.8,8.4l-14.8,5.6
		l7.2,19.6l14.8-5.6c4.4-1.6,9.2-2.4,13.6-0.8c1.2,0.4,2,0.4,3.2,0C186.4,308,187.6,300.4,184.4,292.4z"/>
</g>
<rect x="34.4" y="205.2" style="fill:#F9B54C;" width="49.2" height="92.8"/>
<g>
	<path style="fill:#2B3B4E;" d="M171.2,193.2l-12.4,31.2h-0.4c-1.2-0.4-2.4-0.8-3.6-1.2c0,0-42.4-16.8-42.8-16.8
		c-1.6,0-9.6-4-9.6,6.8c0,0-1.2,21.6-2,30.4h-50c1.6-15.2,10.4-58,48.4-68.4c6-1.6,12-1.6,18-0.8c1.6,0.4,50,16.8,50,16.8
		C168.4,192,170,192.4,171.2,193.2z"/>
	<path style="fill:#2B3B4E;" d="M167.2,316.4L167.2,316.4c0,0-48.4,16.8-50,16.8c-6,0.8-12,0.8-18-0.8C60.8,322,52,279.2,50.4,264
		h50.4c0.4,8.8,2,30.4,2,30.4c0,10.8,8,6.8,9.6,6.8c0.4,0,38.8-15.2,42.4-16.4L167.2,316.4z"/>
</g>
<path style="fill:#FFD05B;" d="M44.8,208.8V294c0,7.6-6.4,14-14,14l0,0V194.8l0,0C38.4,194.8,44.8,201.2,44.8,208.8z"/>
<polygon style="fill:#324A5E;" points="108.8,270.8 75.2,290.4 41.6,270.8 41.6,232 75.2,212.8 108.8,232 "/>
<g>
	<path style="fill:#FFFFFF;" d="M323.6,214.8c-3.2-8-2-15.6,2-17.2c0.8-0.4,2-0.4,3.2,0c4.4,1.2,9.2,0.8,13.6-0.8l14.8-5.6l7.6,19.6
		l-14.8,5.6c-4.4,1.6-8.4,4.4-10.8,8.4c-0.4,0.8-1.2,1.6-2.4,2C332.4,228,326.8,222.8,323.6,214.8z"/>
	<path style="fill:#FFFFFF;" d="M323.6,292.4c3.2-8,8.8-13.2,12.8-11.6c0.8,0.4,1.6,1.2,2.4,2c2.4,4,6.4,6.4,10.8,8.4l14.8,5.6
		l-7.2,19.6l-15.2-6c-4.4-1.6-9.2-2.4-13.6-0.8c-1.2,0.4-2,0.4-3.2,0C321.6,308,320.4,300.4,323.6,292.4z"/>
</g>
<rect x="424.4" y="205.2" style="fill:#F9B54C;" width="49.2" height="92.8"/>
<g>
	<path style="fill:#FF7058;" d="M336.8,193.2l12.4,31.2h0.4c1.2-0.4,2.4-0.8,3.6-1.2c0,0,42.4-16.8,42.8-16.8c1.6,0,9.6-4,9.6,6.8
		c0,0,1.2,21.6,2,30.4H458c-1.6-15.2-10.4-58-48.4-68.4c-6-1.6-12-1.6-18-0.8c-1.6,0.4-50,16.8-50,16.8
		C339.6,192,338,192.4,336.8,193.2z"/>
	<path style="fill:#FF7058;" d="M340.8,316.4L340.8,316.4c0,0,48.4,16.8,50,16.8c6,0.8,12,0.8,18-0.8c38.4-10.8,46.8-53.6,48.4-68.4
		h-50.4c-0.4,8.8-2,30.4-2,30.4c0,10.8-8,6.8-9.6,6.8c-0.4,0-38.8-15.2-42.4-16.4L340.8,316.4z"/>
</g>
<path style="fill:#FFD05B;" d="M463.2,208.8V294c0,7.6,6.4,14,14,14l0,0V194.8l0,0C469.6,194.8,463.2,201.2,463.2,208.8z"/>
<polygon style="fill:#324A5E;" points="399.2,270.8 432.8,290.4 466.4,270.8 466.4,232 432.8,212.8 399.2,232 "/>
<g>
	<path style="fill:#FFFFFF;" d="M293.2,184.4c8,3.2,15.6,2,17.2-2c0.4-0.8,0.4-2,0-3.2c-1.2-4.4-0.8-9.2,0.8-13.6l5.6-14.8
		l-19.6-7.6l-5.6,14.8c-1.6,4.4-4.4,8.4-8.4,10.8c-0.8,0.4-1.6,1.2-2,2.4C280,175.6,285.2,181.2,293.2,184.4z"/>
	<path style="fill:#FFFFFF;" d="M215.6,184.4c8-3.2,13.2-8.8,11.6-12.8c-0.4-0.8-1.2-1.6-2-2.4c-4-2.4-6.4-6.4-8.4-10.8l-5.6-14.8
		l-19.6,7.2l5.6,14.8c1.6,4.4,2.4,9.2,0.8,13.6c-0.4,1.2-0.4,2,0,3.2C200,186.4,207.6,187.6,215.6,184.4z"/>
</g>
<rect x="210" y="34.4" style="fill:#F9B54C;" width="92.8" height="49.2"/>
<g>
	<path style="fill:#E6E9EE;" d="M314.8,171.2l-31.2-12.4v-0.4c0.4-1.2,0.8-2.4,1.2-3.6c0,0,16.8-42.4,16.8-42.8c0-1.6,4-9.6-6.8-9.6
		c0,0-21.6-1.2-30.4-2v-50c15.2,1.6,58,10.4,68.4,48.4c1.6,6,1.6,12,0.8,18c-0.4,1.6-16.8,50-16.8,50
		C316,168.4,315.6,170,314.8,171.2z"/>
	<path style="fill:#E6E9EE;" d="M191.6,167.2L191.6,167.2c0,0-16.8-48.4-16.8-50c-0.8-6-0.8-12,0.8-18
		c10.8-38.4,53.6-46.8,68.4-48.4v50.4c-8.8,0.4-30.4,2-30.4,2c-10.8,0-6.8,8-6.8,9.6c0,0.4,15.2,38.8,16.4,42.4L191.6,167.2z"/>
</g>
<path style="fill:#FFD05B;" d="M299.2,44.8H214c-7.6,0-14-6.4-14-14l0,0h112.8l0,0C313.2,38.4,306.8,44.8,299.2,44.8z"/>
<polygon style="fill:#324A5E;" points="237.2,108.8 217.6,75.2 237.2,41.6 276,41.6 295.2,75.2 276,108.8 "/>
<g>
	<path style="fill:#FFFFFF;" d="M293.2,323.6c8-3.2,15.6-2,17.2,2c0.4,0.8,0.4,2,0,3.2c-1.2,4.4-0.8,9.2,0.8,13.6l5.6,14.8
		l-19.6,7.6l-5.6-14.8c-1.6-4.4-4.4-8.4-8.4-10.8c-0.8-0.4-1.6-1.2-2-2.4C280,332.4,285.2,326.8,293.2,323.6z"/>
	<path style="fill:#FFFFFF;" d="M215.6,323.6c8,3.2,13.2,8.8,11.6,12.8c-0.4,0.8-1.2,1.6-2,2.4c-4,2.4-6.4,6.4-8.4,10.8l-5.6,14.8
		l-19.6-7.2l5.6-14.8c1.6-4.4,2.4-9.2,0.8-13.6c-0.4-1.2-0.4-2,0-3.2C200,321.6,207.6,320.4,215.6,323.6z"/>
</g>
<rect x="210" y="424.4" style="fill:#F9B54C;" width="92.8" height="49.2"/>
<g>
	<path style="fill:#2B3B4E;" d="M314.8,336.8l-31.2,12.4v0.4c0.4,1.2,0.8,2.4,1.2,3.6c0,0,16.8,42.4,16.8,42.8c0,1.6,4,9.6-6.8,9.6
		c0,0-21.6,1.2-30.4,2V458c15.2-1.6,58-10.4,68.4-48.4c1.6-6,1.6-12,0.8-18c-0.4-1.6-16.8-50-16.8-50
		C316,339.6,315.6,338,314.8,336.8z"/>
	<path style="fill:#2B3B4E;" d="M191.6,340.8L191.6,340.8c0,0-16.8,48.4-16.8,50c-0.8,6-0.8,12,0.8,18
		c10.8,38.4,53.6,46.8,68.4,48.4v-50.4c-8.8-0.4-30.4-2-30.4-2c-10.8,0-6.8-8-6.8-9.6c0-0.4,15.2-38.8,16.4-42.4L191.6,340.8z"/>
</g>
<path style="fill:#FFD05B;" d="M299.2,463.2H214c-7.6,0-14,6.4-14,14l0,0h112.8l0,0C313.2,469.6,306.8,463.2,299.2,463.2z"/>
<polygon style="fill:#324A5E;" points="237.2,399.2 217.6,432.8 237.2,466.4 276,466.4 295.2,432.8 276,399.2 "/>
<g>
</g>
<g>
</g>
<g>
</g>
<g>
</g>
<g>
</g>
<g>
</g>
<g>
</g>
<g>
</g>
<g>
</g>
<g>
</g>
<g>
</g>
<g>
</g>
<g>
</g>
<g>
</g>
<g>
</g>
</svg>
